<?xml version="1.0" standalone="no"?>
<svg viewBox="0 0 200 200" xmlns="http://www.w3.org/2000/svg">
  <path fill="#84695F" d="M31.6,-53.7C37.4,-45.5,36.1,-30.7,44.6,-18.5C53.1,-6.3,71.5,3.3,75.7,14.7C80,26.1,70.2,39.2,58.4,47.7C46.5,56.2,32.6,60,19.9,60.5C7.1,60.9,-4.5,58,-17.6,56C-30.7,54,-45.3,52.9,-54.9,45.5C-64.6,38.1,-69.3,24.4,-68.1,11.7C-67,-1,-60,-12.6,-53.1,-22.8C-46.2,-33,-39.4,-41.9,-30.6,-48.7C-21.7,-55.5,-10.9,-60.3,1,-61.9C12.9,-63.5,25.8,-61.9,31.6,-53.7Z" transform="translate(100 100)" />
</svg>
